# xmcd CD database file
#
# Track frame offsets:
#	150
#	18016
#	36851
#	56285
#	75761
#	98514
#	115891
#	132617
#	152162
#	175417
#	195955
#	214823
#
# Disc length: 3107 seconds
#
# Revision: 0
# Processed by: cddbd v1.5.2PL0 Copyright (c) Steve Scherf et al.
# Submitted via: jetAudio 7
#
DISCID=8c0c210c
DTITLE=王巍  - 萬琴之王 II
DYEAR=1900
DGENRE=Pop
TTITLE0=爲你鍾情
TTITLE1=情已逝
TTITLE2=似水流年
TTITLE3=紅茶館
TTITLE4=風繼續吹
TTITLE5=一起走过的日子
TTITLE6=梨渦淺笑
TTITLE7=季候風
TTITLE8=風再起時
TTITLE9=愛在深秋
TTITLE10=你的名字我的姓氏
TTITLE11=偏偏喜歡你
EXTD=
EXTT0=
EXTT1=
EXTT2=
EXTT3=
EXTT4=
EXTT5=
EXTT6=
EXTT7=
EXTT8=
EXTT9=
EXTT10=
EXTT11=
PLAYORDER=
